<mxfile host="app.diagrams.net" modified="2024-05-01T09:54:40.602Z" agent="Mozilla/5.0 (Windows NT 10.0; Win64; x64) AppleWebKit/537.36 (KHTML, like Gecko) Chrome/123.0.0.0 Safari/537.36" version="24.2.5" etag="80h41-7LW8GG5kBo00Q7" type="github">
  <diagram name="Page-1" id="7jmA4wnl-KjSTh7h4ctz">
    <mxGraphModel>
      <root>
        <mxCell id="0" />
        <mxCell id="1" parent="0" />
      </root>
    </mxGraphModel>
  </diagram>
</mxfile>
